ISO-10303-21;
HEADER;
/* Generated by software containing ST-Developer
 * from STEP Tools, Inc. (www.steptools.com) 
 */
/* OPTION: using custom renumber hook */

FILE_DESCRIPTION(
/* description */ ('STEP AP242 Edition 2',
'CAx-IF Rec.Pracs.---Representation and Presentation of Product Manufa
cturing Information (PMI)---4.0---2014-10-13',
'CAx-IF Rec.Pracs.---3D Tessellated Geometry---0.4---2014-09-14','2;1',
'CAx-IF Rec.Pracs.---User Defined Attributes---1.5---2016-08-15'),
/* implementation_level */ '2;1');

FILE_NAME(
/* name */ 'Steering_Linkage - Steering Linkage',
/* time_stamp */ '2026-09-08T03:50:15Z',
/* author */ (''),
/* organization */ (''),
/* preprocessor_version */ 'ST-DEVELOPER v20',
/* originating_system */ 'ONSHAPE BY PTC INC, 1.220',
/* authorisation */ '  ');

FILE_SCHEMA (('AP242_MANAGED_MODEL_BASED_3D_ENGINEERING_MIM_LF { 1 0 10303 442 3 1 4 }'));
ENDSEC;

DATA;
#10=SHAPE_REPRESENTATION_RELATIONSHIP('','',#205,#11);
#11=ADVANCED_BREP_SHAPE_REPRESENTATION('',(#203),#373);
#12=(
BOUNDED_SURFACE()
B_SPLINE_SURFACE(3,1,((#308,#309),(#310,#311),(#312,#313),(#314,#315)),
 .CYLINDRICAL_SURF.,.F.,.F.,.F.)
B_SPLINE_SURFACE_WITH_KNOTS((4,4),(2,2),(0.,1.),(0.0454545454545455,0.954545454545455),
 .PIECEWISE_BEZIER_KNOTS.)
GEOMETRIC_REPRESENTATION_ITEM()
RATIONAL_B_SPLINE_SURFACE(((1.,1.),(0.333333333333333,0.333333333333333),
(0.333333333333333,0.333333333333333),(1.,1.)))
REPRESENTATION_ITEM('')
SURFACE()
);
#13=(
BOUNDED_SURFACE()
B_SPLINE_SURFACE(3,1,((#318,#319),(#320,#321),(#322,#323),(#324,#325)),
 .CYLINDRICAL_SURF.,.F.,.F.,.F.)
B_SPLINE_SURFACE_WITH_KNOTS((4,4),(2,2),(0.,1.),(0.0454545454545443,0.954545454545455),
 .PIECEWISE_BEZIER_KNOTS.)
GEOMETRIC_REPRESENTATION_ITEM()
RATIONAL_B_SPLINE_SURFACE(((1.,1.),(0.333333333333332,0.333333333333332),
(0.333333333333332,0.333333333333332),(1.,1.)))
REPRESENTATION_ITEM('')
SURFACE()
);
#14=(
BOUNDED_SURFACE()
B_SPLINE_SURFACE(3,1,((#328,#329),(#330,#331),(#332,#333),(#334,#335)),
 .CYLINDRICAL_SURF.,.F.,.F.,.F.)
B_SPLINE_SURFACE_WITH_KNOTS((4,4),(2,2),(0.,1.),(0.0454545454545455,0.954545454545455),
 .PIECEWISE_BEZIER_KNOTS.)
GEOMETRIC_REPRESENTATION_ITEM()
RATIONAL_B_SPLINE_SURFACE(((1.,1.),(0.333333333333333,0.333333333333333),
(0.333333333333333,0.333333333333333),(1.,1.)))
REPRESENTATION_ITEM('')
SURFACE()
);
#15=(
BOUNDED_SURFACE()
B_SPLINE_SURFACE(3,1,((#338,#339),(#340,#341),(#342,#343),(#344,#345)),
 .CYLINDRICAL_SURF.,.F.,.F.,.F.)
B_SPLINE_SURFACE_WITH_KNOTS((4,4),(2,2),(0.,1.),(0.0454545454545455,0.954545454545456),
 .PIECEWISE_BEZIER_KNOTS.)
GEOMETRIC_REPRESENTATION_ITEM()
RATIONAL_B_SPLINE_SURFACE(((1.,1.),(0.333333333333333,0.333333333333333),
(0.333333333333333,0.333333333333333),(1.,1.)))
REPRESENTATION_ITEM('')
SURFACE()
);
#16=(
BOUNDED_SURFACE()
B_SPLINE_SURFACE(3,1,((#356,#357),(#358,#359),(#360,#361),(#362,#363)),
 .CYLINDRICAL_SURF.,.F.,.F.,.F.)
B_SPLINE_SURFACE_WITH_KNOTS((4,4),(2,2),(0.,1.),(0.0454545454545454,0.954545454545455),
 .PIECEWISE_BEZIER_KNOTS.)
GEOMETRIC_REPRESENTATION_ITEM()
RATIONAL_B_SPLINE_SURFACE(((1.,1.),(0.333333333333333,0.333333333333333),
(0.333333333333333,0.333333333333333),(1.,1.)))
REPRESENTATION_ITEM('')
SURFACE()
);
#17=(
BOUNDED_SURFACE()
B_SPLINE_SURFACE(3,1,((#364,#365),(#366,#367),(#368,#369),(#370,#371)),
 .CYLINDRICAL_SURF.,.F.,.F.,.F.)
B_SPLINE_SURFACE_WITH_KNOTS((4,4),(2,2),(0.,1.),(0.0454545454545454,0.954545454545455),
 .PIECEWISE_BEZIER_KNOTS.)
GEOMETRIC_REPRESENTATION_ITEM()
RATIONAL_B_SPLINE_SURFACE(((1.,1.),(0.333333333333333,0.333333333333333),
(0.333333333333333,0.333333333333333),(1.,1.)))
REPRESENTATION_ITEM('')
SURFACE()
);
#18=LINE('',#276,#30);
#19=LINE('',#281,#31);
#20=LINE('',#301,#32);
#21=LINE('',#307,#33);
#22=LINE('',#316,#34);
#23=LINE('',#317,#35);
#24=LINE('',#326,#36);
#25=LINE('',#327,#37);
#26=LINE('',#336,#38);
#27=LINE('',#337,#39);
#28=LINE('',#346,#40);
#29=LINE('',#347,#41);
#30=VECTOR('',#231,1000.);
#31=VECTOR('',#234,1000.);
#32=VECTOR('',#249,1000.);
#33=VECTOR('',#254,1000.);
#34=VECTOR('',#255,1000.);
#35=VECTOR('',#256,1000.);
#36=VECTOR('',#257,1000.);
#37=VECTOR('',#258,1000.);
#38=VECTOR('',#259,1000.);
#39=VECTOR('',#260,1000.);
#40=VECTOR('',#261,1000.);
#41=VECTOR('',#262,1000.);
#42=ORIENTED_EDGE('',*,*,#94,.T.);
#43=ORIENTED_EDGE('',*,*,#95,.T.);
#44=ORIENTED_EDGE('',*,*,#96,.T.);
#45=ORIENTED_EDGE('',*,*,#97,.T.);
#46=ORIENTED_EDGE('',*,*,#98,.F.);
#47=ORIENTED_EDGE('',*,*,#99,.F.);
#48=ORIENTED_EDGE('',*,*,#100,.F.);
#49=ORIENTED_EDGE('',*,*,#101,.F.);
#50=ORIENTED_EDGE('',*,*,#102,.F.);
#51=ORIENTED_EDGE('',*,*,#103,.F.);
#52=ORIENTED_EDGE('',*,*,#104,.F.);
#53=ORIENTED_EDGE('',*,*,#105,.F.);
#54=ORIENTED_EDGE('',*,*,#106,.F.);
#55=ORIENTED_EDGE('',*,*,#107,.T.);
#56=ORIENTED_EDGE('',*,*,#108,.T.);
#57=ORIENTED_EDGE('',*,*,#109,.T.);
#58=ORIENTED_EDGE('',*,*,#110,.T.);
#59=ORIENTED_EDGE('',*,*,#111,.T.);
#60=ORIENTED_EDGE('',*,*,#112,.F.);
#61=ORIENTED_EDGE('',*,*,#104,.T.);
#62=ORIENTED_EDGE('',*,*,#113,.T.);
#63=ORIENTED_EDGE('',*,*,#97,.F.);
#64=ORIENTED_EDGE('',*,*,#114,.T.);
#65=ORIENTED_EDGE('',*,*,#99,.T.);
#66=ORIENTED_EDGE('',*,*,#115,.F.);
#67=ORIENTED_EDGE('',*,*,#107,.F.);
#68=ORIENTED_EDGE('',*,*,#116,.F.);
#69=ORIENTED_EDGE('',*,*,#106,.T.);
#70=ORIENTED_EDGE('',*,*,#117,.T.);
#71=ORIENTED_EDGE('',*,*,#95,.F.);
#72=ORIENTED_EDGE('',*,*,#118,.T.);
#73=ORIENTED_EDGE('',*,*,#102,.T.);
#74=ORIENTED_EDGE('',*,*,#101,.T.);
#75=ORIENTED_EDGE('',*,*,#119,.F.);
#76=ORIENTED_EDGE('',*,*,#110,.F.);
#77=ORIENTED_EDGE('',*,*,#109,.F.);
#78=ORIENTED_EDGE('',*,*,#119,.T.);
#79=ORIENTED_EDGE('',*,*,#100,.T.);
#80=ORIENTED_EDGE('',*,*,#114,.F.);
#81=ORIENTED_EDGE('',*,*,#111,.F.);
#82=ORIENTED_EDGE('',*,*,#115,.T.);
#83=ORIENTED_EDGE('',*,*,#98,.T.);
#84=ORIENTED_EDGE('',*,*,#118,.F.);
#85=ORIENTED_EDGE('',*,*,#108,.F.);
#86=ORIENTED_EDGE('',*,*,#105,.T.);
#87=ORIENTED_EDGE('',*,*,#116,.T.);
#88=ORIENTED_EDGE('',*,*,#94,.F.);
#89=ORIENTED_EDGE('',*,*,#117,.F.);
#90=ORIENTED_EDGE('',*,*,#103,.T.);
#91=ORIENTED_EDGE('',*,*,#112,.T.);
#92=ORIENTED_EDGE('',*,*,#96,.F.);
#93=ORIENTED_EDGE('',*,*,#113,.F.);
#94=EDGE_CURVE('',#120,#121,#138,.T.);
#95=EDGE_CURVE('',#121,#120,#139,.T.);
#96=EDGE_CURVE('',#122,#123,#140,.T.);
#97=EDGE_CURVE('',#123,#122,#141,.T.);
#98=EDGE_CURVE('',#124,#125,#18,.T.);
#99=EDGE_CURVE('',#126,#124,#142,.T.);
#100=EDGE_CURVE('',#127,#126,#19,.T.);
#101=EDGE_CURVE('',#128,#127,#143,.T.);
#102=EDGE_CURVE('',#125,#128,#144,.T.);
#103=EDGE_CURVE('',#129,#130,#145,.T.);
#104=EDGE_CURVE('',#130,#129,#146,.T.);
#105=EDGE_CURVE('',#131,#132,#147,.T.);
#106=EDGE_CURVE('',#132,#131,#148,.T.);
#107=EDGE_CURVE('',#133,#134,#149,.T.);
#108=EDGE_CURVE('',#134,#135,#20,.T.);
#109=EDGE_CURVE('',#135,#136,#150,.T.);
#110=EDGE_CURVE('',#136,#137,#151,.T.);
#111=EDGE_CURVE('',#137,#133,#21,.T.);
#112=EDGE_CURVE('',#130,#123,#22,.T.);
#113=EDGE_CURVE('',#129,#122,#23,.T.);
#114=EDGE_CURVE('',#133,#126,#24,.T.);
#115=EDGE_CURVE('',#134,#124,#25,.T.);
#116=EDGE_CURVE('',#132,#121,#26,.T.);
#117=EDGE_CURVE('',#131,#120,#27,.T.);
#118=EDGE_CURVE('',#135,#125,#28,.T.);
#119=EDGE_CURVE('',#137,#127,#29,.T.);
#120=VERTEX_POINT('',#269);
#121=VERTEX_POINT('',#270);
#122=VERTEX_POINT('',#273);
#123=VERTEX_POINT('',#274);
#124=VERTEX_POINT('',#277);
#125=VERTEX_POINT('',#278);
#126=VERTEX_POINT('',#280);
#127=VERTEX_POINT('',#282);
#128=VERTEX_POINT('',#284);
#129=VERTEX_POINT('',#291);
#130=VERTEX_POINT('',#292);
#131=VERTEX_POINT('',#295);
#132=VERTEX_POINT('',#296);
#133=VERTEX_POINT('',#299);
#134=VERTEX_POINT('',#300);
#135=VERTEX_POINT('',#302);
#136=VERTEX_POINT('',#304);
#137=VERTEX_POINT('',#306);
#138=CIRCLE('',#207,1.5);
#139=CIRCLE('',#208,1.5);
#140=CIRCLE('',#209,1.5);
#141=CIRCLE('',#210,1.5);
#142=CIRCLE('',#211,5.);
#143=CIRCLE('',#212,5.);
#144=CIRCLE('',#213,5.);
#145=CIRCLE('',#214,1.5);
#146=CIRCLE('',#215,1.5);
#147=CIRCLE('',#216,1.5);
#148=CIRCLE('',#217,1.5);
#149=CIRCLE('',#218,5.);
#150=CIRCLE('',#219,5.);
#151=CIRCLE('',#220,5.);
#152=EDGE_LOOP('',(#42,#43));
#153=EDGE_LOOP('',(#44,#45));
#154=EDGE_LOOP('',(#46,#47,#48,#49,#50));
#155=EDGE_LOOP('',(#51,#52));
#156=EDGE_LOOP('',(#53,#54));
#157=EDGE_LOOP('',(#55,#56,#57,#58,#59));
#158=EDGE_LOOP('',(#60,#61,#62,#63));
#159=EDGE_LOOP('',(#64,#65,#66,#67));
#160=EDGE_LOOP('',(#68,#69,#70,#71));
#161=EDGE_LOOP('',(#72,#73,#74,#75,#76,#77));
#162=EDGE_LOOP('',(#78,#79,#80,#81));
#163=EDGE_LOOP('',(#82,#83,#84,#85));
#164=EDGE_LOOP('',(#86,#87,#88,#89));
#165=EDGE_LOOP('',(#90,#91,#92,#93));
#166=FACE_BOUND('',#152,.T.);
#167=FACE_BOUND('',#153,.T.);
#168=FACE_BOUND('',#154,.T.);
#169=FACE_BOUND('',#155,.T.);
#170=FACE_BOUND('',#156,.T.);
#171=FACE_BOUND('',#157,.T.);
#172=FACE_BOUND('',#158,.T.);
#173=FACE_BOUND('',#159,.T.);
#174=FACE_BOUND('',#160,.T.);
#175=FACE_BOUND('',#161,.T.);
#176=FACE_BOUND('',#162,.T.);
#177=FACE_BOUND('',#163,.T.);
#178=FACE_BOUND('',#164,.T.);
#179=FACE_BOUND('',#165,.T.);
#180=B_SPLINE_SURFACE_WITH_KNOTS('',1,1,((#264,#265),(#266,#267)),
 .PLANE_SURF.,.F.,.F.,.F.,(2,2),(2,2),(0.,1.),(0.,1.),.UNSPECIFIED.);
#181=B_SPLINE_SURFACE_WITH_KNOTS('',1,1,((#286,#287),(#288,#289)),
 .PLANE_SURF.,.F.,.F.,.F.,(2,2),(2,2),(0.,1.),(0.,1.),.UNSPECIFIED.);
#182=B_SPLINE_SURFACE_WITH_KNOTS('',1,1,((#348,#349),(#350,#351)),
 .PLANE_SURF.,.F.,.F.,.F.,(2,2),(2,2),(0.,1.),(0.,1.),.UNSPECIFIED.);
#183=B_SPLINE_SURFACE_WITH_KNOTS('',1,1,((#352,#353),(#354,#355)),
 .PLANE_SURF.,.F.,.F.,.F.,(2,2),(2,2),(0.,1.),(0.,1.),.UNSPECIFIED.);
#184=ADVANCED_FACE('',(#166,#167,#168),#180,.F.);
#185=ADVANCED_FACE('',(#169,#170,#171),#181,.T.);
#186=ADVANCED_FACE('',(#172),#12,.F.);
#187=ADVANCED_FACE('',(#173),#13,.T.);
#188=ADVANCED_FACE('',(#174),#14,.F.);
#189=ADVANCED_FACE('',(#175),#15,.T.);
#190=ADVANCED_FACE('',(#176),#182,.F.);
#191=ADVANCED_FACE('',(#177),#183,.F.);
#192=ADVANCED_FACE('',(#178),#16,.F.);
#193=ADVANCED_FACE('',(#179),#17,.F.);
#194=CLOSED_SHELL('',(#184,#185,#186,#187,#188,#189,#190,#191,#192,#193));
#195=STYLED_ITEM('',(#196),#203);
#196=PRESENTATION_STYLE_ASSIGNMENT((#197));
#197=SURFACE_STYLE_USAGE(.BOTH.,#198);
#198=SURFACE_SIDE_STYLE('',(#199));
#199=SURFACE_STYLE_FILL_AREA(#200);
#200=FILL_AREA_STYLE('',(#201));
#201=FILL_AREA_STYLE_COLOUR('',#202);
#202=COLOUR_RGB('',0.815686274509804,0.815686274509804,0.815686274509804);
#203=MANIFOLD_SOLID_BREP('Steering Linkage',#194);
#204=SHAPE_DEFINITION_REPRESENTATION(#378,#205);
#205=SHAPE_REPRESENTATION('Steering Linkage',(#206),#373);
#206=AXIS2_PLACEMENT_3D('',#263,#221,#222);
#207=AXIS2_PLACEMENT_3D('',#268,#223,#224);
#208=AXIS2_PLACEMENT_3D('',#271,#225,#226);
#209=AXIS2_PLACEMENT_3D('',#272,#227,#228);
#210=AXIS2_PLACEMENT_3D('',#275,#229,#230);
#211=AXIS2_PLACEMENT_3D('',#279,#232,#233);
#212=AXIS2_PLACEMENT_3D('',#283,#235,#236);
#213=AXIS2_PLACEMENT_3D('',#285,#237,#238);
#214=AXIS2_PLACEMENT_3D('',#290,#239,#240);
#215=AXIS2_PLACEMENT_3D('',#293,#241,#242);
#216=AXIS2_PLACEMENT_3D('',#294,#243,#244);
#217=AXIS2_PLACEMENT_3D('',#297,#245,#246);
#218=AXIS2_PLACEMENT_3D('',#298,#247,#248);
#219=AXIS2_PLACEMENT_3D('',#303,#250,#251);
#220=AXIS2_PLACEMENT_3D('',#305,#252,#253);
#221=DIRECTION('',(0.,0.,1.));
#222=DIRECTION('',(1.,0.,0.));
#223=DIRECTION('',(-4.25935941959806E-16,-1.,-6.64478942035149E-17));
#224=DIRECTION('',(0.,6.64478942035149E-17,-1.));
#225=DIRECTION('',(-4.25935941959806E-16,-1.,-6.64478942035149E-17));
#226=DIRECTION('',(0.,6.64478942035149E-17,-1.));
#227=DIRECTION('',(-4.25935941959806E-16,-1.,-6.64478942035149E-17));
#228=DIRECTION('',(0.,6.64478942035149E-17,-1.));
#229=DIRECTION('',(-4.25935941959806E-16,-1.,-6.64478942035149E-17));
#230=DIRECTION('',(0.,6.64478942035149E-17,-1.));
#231=DIRECTION('',(1.38777878078144E-16,6.64478942035149E-17,-1.));
#232=DIRECTION('',(-4.25935941959806E-16,-1.,-6.64478942035149E-17));
#233=DIRECTION('',(0.,6.64478942035149E-17,-1.));
#234=DIRECTION('',(-2.77555756156289E-16,-6.64478942035149E-17,1.));
#235=DIRECTION('',(-4.25935941959806E-16,-1.,-6.64478942035149E-17));
#236=DIRECTION('',(0.,6.64478942035149E-17,-1.));
#237=DIRECTION('',(-4.25935941959806E-16,-1.,-6.64478942035149E-17));
#238=DIRECTION('',(0.,6.64478942035149E-17,-1.));
#239=DIRECTION('',(-4.25935941959806E-16,-1.,-6.64478942035149E-17));
#240=DIRECTION('',(0.,6.64478942035149E-17,-1.));
#241=DIRECTION('',(-4.25935941959806E-16,-1.,-6.64478942035149E-17));
#242=DIRECTION('',(0.,6.64478942035149E-17,-1.));
#243=DIRECTION('',(-4.25935941959806E-16,-1.,-6.64478942035149E-17));
#244=DIRECTION('',(0.,6.64478942035149E-17,-1.));
#245=DIRECTION('',(-4.25935941959806E-16,-1.,-6.64478942035149E-17));
#246=DIRECTION('',(0.,6.64478942035149E-17,-1.));
#247=DIRECTION('',(-4.25935941959806E-16,-1.,-6.64478942035149E-17));
#248=DIRECTION('',(0.,6.64478942035149E-17,-1.));
#249=DIRECTION('',(1.38777878078144E-16,6.64478942035149E-17,-1.));
#250=DIRECTION('',(-4.25935941959806E-16,-1.,-6.64478942035149E-17));
#251=DIRECTION('',(0.,6.64478942035149E-17,-1.));
#252=DIRECTION('',(-4.25935941959806E-16,-1.,-6.64478942035149E-17));
#253=DIRECTION('',(0.,6.64478942035149E-17,-1.));
#254=DIRECTION('',(-2.77555756156289E-16,-6.64478942035149E-17,1.));
#255=DIRECTION('',(0.,1.,-2.49331437438275E-15));
#256=DIRECTION('',(0.,1.,-2.49331437438275E-15));
#257=DIRECTION('',(4.25935941959806E-16,1.,6.64478942035149E-17));
#258=DIRECTION('',(4.25935941959806E-16,1.,6.64478942035149E-17));
#259=DIRECTION('',(0.,1.,-2.49331437438275E-15));
#260=DIRECTION('',(0.,1.,-2.49331437438275E-15));
#261=DIRECTION('',(4.25935941959806E-16,1.,6.64478942035149E-17));
#262=DIRECTION('',(4.25935941959806E-16,1.,6.64478942035149E-17));
#263=CARTESIAN_POINT('',(0.,0.,0.));
#264=CARTESIAN_POINT('',(-5.5,5.,-19.4810000000002));
#265=CARTESIAN_POINT('',(-5.5,5.,19.4810000000001));
#266=CARTESIAN_POINT('',(5.50000000000004,5.,-19.4810000000002));
#267=CARTESIAN_POINT('',(5.50000000000004,5.,19.4810000000001));
#268=CARTESIAN_POINT('',(4.16333634234433E-14,5.,-12.5000000000002));
#269=CARTESIAN_POINT('',(4.16333634234433E-14,5.,-11.));
#270=CARTESIAN_POINT('',(4.16333634234433E-14,5.,-14.0000000000002));
#271=CARTESIAN_POINT('',(4.16333634234433E-14,5.,-12.5000000000002));
#272=CARTESIAN_POINT('',(4.16333634234433E-14,5.00000000000008,12.5000000000001));
#273=CARTESIAN_POINT('',(4.16333634234433E-14,5.00000000000008,14.0000000000001));
#274=CARTESIAN_POINT('',(4.16333634234433E-14,5.00000000000008,11.0000000000001));
#275=CARTESIAN_POINT('',(4.16333634234433E-14,5.00000000000008,12.5000000000001));
#276=CARTESIAN_POINT('',(-5.,5.,1.2490009027033E-13));
#277=CARTESIAN_POINT('',(-5.,5.00000000000008,12.5000000000001));
#278=CARTESIAN_POINT('',(-5.,5.,-12.5000000000002));
#279=CARTESIAN_POINT('',(4.16333634234433E-14,5.00000000000008,12.5000000000001));
#280=CARTESIAN_POINT('',(5.,5.00000000000008,12.5000000000001));
#281=CARTESIAN_POINT('',(5.,5.,1.2490009027033E-13));
#282=CARTESIAN_POINT('',(5.,5.,-12.5000000000002));
#283=CARTESIAN_POINT('',(4.16333634234433E-14,5.,-12.5000000000002));
#284=CARTESIAN_POINT('',(4.16333634234433E-14,5.,-17.5000000000002));
#285=CARTESIAN_POINT('',(4.16333634234433E-14,5.,-12.5000000000002));
#286=CARTESIAN_POINT('',(-5.50000000000006,0.,-19.4810000000002));
#287=CARTESIAN_POINT('',(-5.50000000000006,0.,19.4810000000002));
#288=CARTESIAN_POINT('',(5.50000000000005,0.,-19.4810000000002));
#289=CARTESIAN_POINT('',(5.50000000000005,0.,19.4810000000002));
#290=CARTESIAN_POINT('',(4.16333634234433E-14,7.97972798949331E-14,12.5000000000001));
#291=CARTESIAN_POINT('',(4.16333634234433E-14,8.32667268468867E-14,14.0000000000001));
#292=CARTESIAN_POINT('',(4.16333634234433E-14,7.63278329429795E-14,11.0000000000001));
#293=CARTESIAN_POINT('',(4.16333634234433E-14,7.97972798949331E-14,12.5000000000001));
#294=CARTESIAN_POINT('',(4.16333634234433E-14,1.7347234759768E-14,-12.5000000000002));
#295=CARTESIAN_POINT('',(4.16333634234433E-14,2.08166817117217E-14,-11.));
#296=CARTESIAN_POINT('',(4.16333634234433E-14,1.38777878078145E-14,-14.0000000000002));
#297=CARTESIAN_POINT('',(4.16333634234433E-14,1.7347234759768E-14,-12.5000000000002));
#298=CARTESIAN_POINT('',(4.16333634234433E-14,7.97972798949331E-14,12.5000000000001));
#299=CARTESIAN_POINT('',(5.,7.97972798949331E-14,12.5000000000001));
#300=CARTESIAN_POINT('',(-5.,7.97972798949331E-14,12.5000000000001));
#301=CARTESIAN_POINT('',(-5.00000000000006,4.85722573273506E-14,4.16333634234433E-14));
#302=CARTESIAN_POINT('',(-5.,1.7347234759768E-14,-12.5000000000002));
#303=CARTESIAN_POINT('',(4.16333634234433E-14,1.7347234759768E-14,-12.5000000000002));
#304=CARTESIAN_POINT('',(4.16333634234433E-14,1.76794742307856E-14,-17.5000000000002));
#305=CARTESIAN_POINT('',(4.16333634234433E-14,1.7347234759768E-14,-12.5000000000002));
#306=CARTESIAN_POINT('',(5.,1.7347234759768E-14,-12.5000000000002));
#307=CARTESIAN_POINT('',(5.,4.85722573273506E-14,4.16333634234433E-14));
#308=CARTESIAN_POINT('',(4.16333634234433E-14,8.32667268468867E-14,14.0000000000001));
#309=CARTESIAN_POINT('',(4.16333634234433E-14,5.00000000000009,14.0000000000001));
#310=CARTESIAN_POINT('',(3.00000000000004,8.32260692654185E-14,14.0000000000001));
#311=CARTESIAN_POINT('',(3.00000000000004,5.00000000000009,14.0000000000001));
#312=CARTESIAN_POINT('',(3.00000000000004,7.57857318567367E-14,11.0000000000001));
#313=CARTESIAN_POINT('',(3.00000000000004,5.00000000000008,11.0000000000001));
#314=CARTESIAN_POINT('',(4.18170604433154E-14,7.57857318567368E-14,11.0000000000001));
#315=CARTESIAN_POINT('',(4.18170604433154E-14,5.00000000000008,11.0000000000001));
#316=CARTESIAN_POINT('',(4.16333634234433E-14,2.50000000000008,11.0000000000001));
#317=CARTESIAN_POINT('',(4.16333634234433E-14,2.50000000000008,14.0000000000001));
#318=CARTESIAN_POINT('',(-4.99999999999996,7.32378567513958E-14,12.5000000000001));
#319=CARTESIAN_POINT('',(-4.99999999999996,5.00000000000008,12.5000000000001));
#320=CARTESIAN_POINT('',(-4.99999999999998,9.8228716827187E-14,22.5000000000002));
#321=CARTESIAN_POINT('',(-4.99999999999998,5.0000000000001,22.5000000000002));
#322=CARTESIAN_POINT('',(5.00000000000006,9.8228716827187E-14,22.5000000000002));
#323=CARTESIAN_POINT('',(5.00000000000006,5.0000000000001,22.5000000000002));
#324=CARTESIAN_POINT('',(5.00000000000004,7.32378567513958E-14,12.5000000000001));
#325=CARTESIAN_POINT('',(5.00000000000004,5.00000000000008,12.5000000000001));
#326=CARTESIAN_POINT('',(5.,-0.501999999999923,12.5000000000001));
#327=CARTESIAN_POINT('',(-5.,-0.501999999999923,12.5000000000001));
#328=CARTESIAN_POINT('',(4.16333634234433E-14,2.08166817117217E-14,-11.0000000000001));
#329=CARTESIAN_POINT('',(4.16333634234433E-14,5.00000000000001,-11.0000000000001));
#330=CARTESIAN_POINT('',(3.00000000000024,2.08166817117217E-14,-11.0000000000001));
#331=CARTESIAN_POINT('',(3.00000000000024,5.00000000000001,-11.0000000000001));
#332=CARTESIAN_POINT('',(3.00000000000024,1.33356867215717E-14,-14.0000000000003));
#333=CARTESIAN_POINT('',(3.00000000000024,5.,-14.0000000000003));
#334=CARTESIAN_POINT('',(4.18170604433155E-14,1.33356867215717E-14,-14.0000000000003));
#335=CARTESIAN_POINT('',(4.18170604433155E-14,5.,-14.0000000000003));
#336=CARTESIAN_POINT('',(4.16333634234433E-14,2.5,-14.0000000000002));
#337=CARTESIAN_POINT('',(4.16333634234433E-14,2.5,-11.));
#338=CARTESIAN_POINT('',(5.00000000000004,1.73472347597681E-14,-12.5000000000002));
#339=CARTESIAN_POINT('',(5.00000000000004,5.00000000000001,-12.5000000000002));
#340=CARTESIAN_POINT('',(5.00000000000005,-7.60296773455461E-15,-22.5000000000002));
#341=CARTESIAN_POINT('',(5.00000000000005,4.99999999999998,-22.5000000000002));
#342=CARTESIAN_POINT('',(-4.99999999999997,-7.60296773455461E-15,-22.5000000000002));
#343=CARTESIAN_POINT('',(-4.99999999999997,4.99999999999998,-22.5000000000002));
#344=CARTESIAN_POINT('',(-4.99999999999996,1.73472347597681E-14,-12.5000000000002));
#345=CARTESIAN_POINT('',(-4.99999999999996,5.00000000000001,-12.5000000000002));
#346=CARTESIAN_POINT('',(-5.,-0.501999999999985,-12.5000000000002));
#347=CARTESIAN_POINT('',(5.,-0.501999999999985,-12.5000000000002));
#348=CARTESIAN_POINT('',(5.,5.25000000000001,-13.7500000000002));
#349=CARTESIAN_POINT('',(5.,5.25000000000008,13.7500000000001));
#350=CARTESIAN_POINT('',(5.,-0.249999999999986,-13.7500000000002));
#351=CARTESIAN_POINT('',(5.,-0.249999999999918,13.7500000000002));
#352=CARTESIAN_POINT('',(-5.,-0.249999999999986,-13.7500000000002));
#353=CARTESIAN_POINT('',(-5.0000000000001,-0.249999999999917,13.7500000000002));
#354=CARTESIAN_POINT('',(-5.,5.25000000000002,-13.7500000000002));
#355=CARTESIAN_POINT('',(-5.0000000000001,5.25000000000008,13.7500000000001));
#356=CARTESIAN_POINT('',(4.18170604433155E-14,1.33356867215717E-14,-14.0000000000003));
#357=CARTESIAN_POINT('',(4.18170604433155E-14,5.,-14.0000000000003));
#358=CARTESIAN_POINT('',(-3.00000000000016,1.33356867215717E-14,-14.0000000000003));
#359=CARTESIAN_POINT('',(-3.00000000000016,5.,-14.0000000000003));
#360=CARTESIAN_POINT('',(-3.00000000000016,2.08166817117217E-14,-11.0000000000001));
#361=CARTESIAN_POINT('',(-3.00000000000016,5.00000000000001,-11.0000000000001));
#362=CARTESIAN_POINT('',(4.16333634234433E-14,2.08166817117217E-14,-11.0000000000001));
#363=CARTESIAN_POINT('',(4.16333634234433E-14,5.00000000000001,-11.0000000000001));
#364=CARTESIAN_POINT('',(4.18170604433154E-14,7.57857318567368E-14,11.0000000000001));
#365=CARTESIAN_POINT('',(4.18170604433154E-14,5.00000000000008,11.0000000000001));
#366=CARTESIAN_POINT('',(-2.99999999999996,7.5826389438205E-14,11.0000000000001));
#367=CARTESIAN_POINT('',(-2.99999999999996,5.00000000000008,11.0000000000001));
#368=CARTESIAN_POINT('',(-2.99999999999996,8.32667268468867E-14,14.0000000000001));
#369=CARTESIAN_POINT('',(-2.99999999999996,5.00000000000009,14.0000000000001));
#370=CARTESIAN_POINT('',(4.16333634234433E-14,8.32667268468867E-14,14.0000000000001));
#371=CARTESIAN_POINT('',(4.16333634234433E-14,5.00000000000009,14.0000000000001));
#372=MECHANICAL_DESIGN_GEOMETRIC_PRESENTATION_REPRESENTATION('',(#195),
#373);
#373=(
GEOMETRIC_REPRESENTATION_CONTEXT(3)
GLOBAL_UNCERTAINTY_ASSIGNED_CONTEXT((#374))
GLOBAL_UNIT_ASSIGNED_CONTEXT((#377,#376,#375))
REPRESENTATION_CONTEXT('Steering Linkage','TOP_LEVEL_ASSEMBLY_PART')
);
#374=UNCERTAINTY_MEASURE_WITH_UNIT(LENGTH_MEASURE(1.E-5),#377,
'DISTANCE_ACCURACY_VALUE','Maximum Tolerance applied to model');
#375=(
NAMED_UNIT(*)
SI_UNIT($,.STERADIAN.)
SOLID_ANGLE_UNIT()
);
#376=(
NAMED_UNIT(*)
PLANE_ANGLE_UNIT()
SI_UNIT($,.RADIAN.)
);
#377=(
LENGTH_UNIT()
NAMED_UNIT(*)
SI_UNIT(.MILLI.,.METRE.)
);
#378=PRODUCT_DEFINITION_SHAPE('','',#379);
#379=PRODUCT_DEFINITION('','',#381,#380);
#380=PRODUCT_DEFINITION_CONTEXT('',#387,'design');
#381=PRODUCT_DEFINITION_FORMATION_WITH_SPECIFIED_SOURCE('','',#383,
 .NOT_KNOWN.);
#382=PRODUCT_RELATED_PRODUCT_CATEGORY('','',(#383));
#383=PRODUCT('Steering Linkage','Steering Linkage','Steering Linkage',(#385));
#384=PRODUCT_CATEGORY('','');
#385=PRODUCT_CONTEXT('',#387,'mechanical');
#386=APPLICATION_PROTOCOL_DEFINITION('international standard',
'ap242_managed_model_based_3d_engineering',2020,#387);
#387=APPLICATION_CONTEXT('managed model based 3d engineering');
ENDSEC;
END-ISO-10303-21;
